<svg overflow="visible" viewBox="0 0 1000 600" xml:space="preserve" xmlns="http://www.w3.org/2000/svg"><path d="M251.99 369.532a6.615 6.615 0 1 0 0 13.23 6.615 6.615 0 0 0 0-13.23zm0 18.772a2.805 2.805 0 1 0 .002 5.61 2.805 2.805 0 0 0-.002-5.61zm7.431 8.607v22.711a43.857 43.857 0 0 0 18.053-7.483l-16.059-16.059c-.648.307-1.312.587-1.994.831zm12.505-11.337 16.058 16.058a43.859 43.859 0 0 0 7.482-18.055h-22.713c-.245.682-.52 1.349-.827 1.997zm-.002-18.852c.307.648.585 1.313.83 1.995h22.712a43.867 43.867 0 0 0-7.483-18.054l-16.059 16.059zm-29.358-10.507a21.706 21.706 0 0 1 1.995-.831v-22.711a43.857 43.857 0 0 0-18.053 7.483l16.058 16.059zm9.424-52.279c-39.881 0-72.212 32.33-72.212 72.212s32.331 72.212 72.212 72.212c39.882 0 72.212-32.33 72.212-72.212s-32.33-72.212-72.212-72.212zm0 123.792c-28.487 0-51.58-23.093-51.58-51.58 0-28.486 23.093-51.58 51.58-51.58s51.58 23.094 51.58 51.58c0 28.487-23.093 51.58-51.58 51.58zm0-63.739a2.804 2.804 0 1 0 0-5.609 2.804 2.804 0 0 0 0 5.609zm25.484-23.834a43.856 43.856 0 0 0-18.053-7.482v22.711c.682.244 1.347.522 1.995.83l16.058-16.059zm-45.418 26.566-16.058-16.059a43.85 43.85 0 0 0-7.482 18.055h22.713c.244-.682.519-1.348.827-1.996zm-5.55 45.419a43.864 43.864 0 0 0 18.055 7.482v-22.711a21.603 21.603 0 0 1-1.996-.83l-16.059 16.059zm4.721-28.563h-22.711a43.87 43.87 0 0 0 7.482 18.055l16.059-16.06a21.863 21.863 0 0 1-.83-1.995zm8.606-7.431a2.803 2.803 0 1 0-5.607-.001 2.803 2.803 0 0 0 5.607.001zm24.315 0a2.803 2.803 0 1 0 5.607.001 2.803 2.803 0 0 0-5.607-.001zm547.493-6.614a6.615 6.615 0 1 0 0 13.23 6.615 6.615 0 0 0 0-13.23zm-9.424-13.317a21.687 21.687 0 0 1 1.994-.831v-22.711a43.867 43.867 0 0 0-18.054 7.483l16.06 16.059zm9.424 32.089a2.804 2.804 0 1 0 0 5.609 2.804 2.804 0 0 0 0-5.609zm7.43 8.607v22.711a43.863 43.863 0 0 0 18.053-7.483l-16.059-16.059c-.648.307-1.312.587-1.994.831zm13.331-13.334c-.244.682-.52 1.349-.826 1.997l16.058 16.058a43.859 43.859 0 0 0 7.482-18.055h-22.714zm104.874-91.42c-9.801-15.004-34.896-20.235-54.012-26.477-133.488-32.242-177.882-21.747-200.162-24.888-4.495-1.199-8.503-5.123-12.179-7.413-8.057-5.019-16.418-9.434-24.358-14.298-13.119-8.036-73.653-41.146-90.02-47.128-35.963-13.142-92.818-23.68-229.815-12.708-5.56-1.528-8.916-6.016-14.826-7.414-5.846-1.383-11.214 1.693-15.356 2.648.075 4.491-.326 8.136-1.059 11.649-26.775 11.291-53.869 19.953-80.488 31.242-11.108 4.711-22.569 9.32-33.89 14.297-7.042 3.097-13.77 7.495-21.71 10.062-8.624 2.786-18.051 1.527-27.536 3.706-17.267 3.967-35.99 4.497-55.071 4.766-2.181 3.738-5.977 7.503-6.884 12.18 3.305 1.02 4.412 3.298 4.236 7.942-5.84 8.653-4.274 20.981-4.236 34.949-12.441 6.37-14.333 29.711-11.12 48.187l-1.059 4.767c.665 5.223 2.365 10.742 2.647 16.415 4.672 3.133 9.968 8.167 13.238 12.709 1.595 2.215 2.371 6.033 5.295 6.884 15.631 11.41 94.785 13.768 94.785 13.768l4.164.228a75.541 75.541 0 0 1-.973-12.082c0-41.478 33.625-75.102 75.102-75.102 41.478 0 75.102 33.624 75.102 75.102 0 6.966-.952 18.277-2.728 24.678l416.073-.736a75.025 75.025 0 0 1-3.898-23.941c0-41.478 33.624-75.102 75.102-75.102s75.102 33.624 75.102 75.102c0 7.27-1.036 14.297-2.964 20.945l4.252-.089s32.779-1.584 40.773-5.296c7.994-3.711 11.12-14.297 11.12-14.297l-2.118-22.24c.001-.001 9.847-47.13-.529-63.015zm-664.557-54.536c-24.887-16.535-11.702-35.842-12.373-35.781a14.13 14.13 0 0 0-.865.827c.528-.559.788-.82.865-.827 6.412-5.714 43.006-31.271 172.82-31.474 4.06 22.768 8.12 52.68 12.179 75.446-52.233-1.583-155.045-.7-172.626-8.191zm334.662 8.467c-11.408 0-124.969-.031-124.969-.031s-18.331-48.33-24.887-75.157c.763.07 23.298 1.055 23.298 1.055s44.613 5.079 72.546 14.298c21.976 7.253 65.363 36.403 66.19 38.126-13.053.668-16.143 10.95-12.178 21.709zm204.26 57.848c-39.882 0-72.212 32.33-72.212 72.212s32.33 72.212 72.212 72.212 72.212-32.33 72.212-72.212-32.331-72.212-72.212-72.212zm0 123.792c-28.486 0-51.58-23.093-51.58-51.58 0-28.486 23.094-51.58 51.58-51.58 28.487 0 51.58 23.094 51.58 51.58 0 28.487-23.093 51.58-51.58 51.58zm-19.935-61.007-16.059-16.059a43.863 43.863 0 0 0-7.481 18.055h22.713c.244-.682.519-1.348.827-1.996zm7.777 9.425a2.804 2.804 0 1 0-5.609 0 2.804 2.804 0 0 0 5.609 0zm12.158-12.157a2.804 2.804 0 1 0 0-5.609 2.804 2.804 0 0 0 0 5.609zm25.484-23.834a43.86 43.86 0 0 0-18.054-7.482v22.711c.682.244 1.347.522 1.995.83l16.059-16.059zm-13.327 35.991a2.804 2.804 0 1 0 5.609 0 2.804 2.804 0 0 0-5.609 0zm-37.642 35.994a43.864 43.864 0 0 0 18.055 7.482v-22.711a21.488 21.488 0 0 1-1.996-.83l-16.059 16.059zm4.721-28.563h-22.711a43.87 43.87 0 0 0 7.482 18.055l16.059-16.06a21.584 21.584 0 0 1-.83-1.995zm41.527-14.86h22.711a43.866 43.866 0 0 0-7.482-18.054l-16.059 16.059c.307.648.586 1.313.83 1.995z" fill="#ffffff" class="fill-323232"></path></svg>