<svg overflow="visible" viewBox="0 0 1000 600" xml:space="preserve" xmlns="http://www.w3.org/2000/svg"><path d="M245.773 380.676c-4.229 0-7.657 3.416-7.657 7.63 0 4.215 3.428 7.631 7.657 7.631s7.657-3.416 7.657-7.631c0-4.214-3.428-7.63-7.657-7.63zm0 21.652c-1.792 0-3.246 1.448-3.246 3.234s1.453 3.234 3.246 3.234 3.246-1.448 3.246-3.234-1.454-3.234-3.246-3.234zm8.601 9.928v26.197a50.89 50.89 0 0 0 20.897-8.632l-18.588-18.523c-.751.354-1.52.677-2.309.958zm15.432-15.38a25.608 25.608 0 0 1-.957 2.304l18.587 18.522a50.518 50.518 0 0 0 8.661-20.826h-26.291zm-34.942-31.563c.751-.354 1.52-.677 2.309-.958v-26.196a50.87 50.87 0 0 0-20.897 8.631l18.588 18.523zm10.909-60.302c-46.164 0-83.587 37.293-83.587 83.295 0 46.003 37.423 83.295 83.587 83.295s83.587-37.292 83.587-83.295c0-46.002-37.423-83.295-83.587-83.295zm0 142.792c-32.974 0-59.705-26.638-59.705-59.497 0-32.858 26.73-59.496 59.705-59.496s59.705 26.638 59.705 59.496c0 32.859-26.731 59.497-59.705 59.497zm-29.499-17.981a50.887 50.887 0 0 0 20.898 8.631v-26.196c-.79-.282-1.56-.604-2.311-.958l-18.587 18.523zm15.426-41.517c0-1.786-1.453-3.234-3.246-3.234s-3.246 1.448-3.246 3.234 1.453 3.234 3.246 3.234 3.246-1.448 3.246-3.234zm38.107-8.57h26.29a50.502 50.502 0 0 0-8.662-20.825l-18.588 18.523c.355.749.677 1.516.96 2.302zm-24.034-5.454c1.792 0 3.246-1.448 3.246-3.234s-1.453-3.234-3.246-3.234-3.246 1.448-3.246 3.234 1.453 3.234 3.246 3.234zm14.073 14.024c0 1.786 1.453 3.234 3.246 3.234s3.246-1.448 3.246-3.234-1.453-3.234-3.246-3.234-3.246 1.448-3.246 3.234zm-37.148-10.873-18.587-18.522a50.518 50.518 0 0 0-8.661 20.826h26.292c.282-.787.6-1.556.956-2.304zm582.073-1.63h26.289a50.502 50.502 0 0 0-8.662-20.825L803.81 373.5c.355.748.677 1.516.961 2.302zm-583.032 21.074H195.45a50.501 50.501 0 0 0 8.661 20.825l18.588-18.523a25.302 25.302 0 0 1-.96-2.302zm53.532-50.087a50.887 50.887 0 0 0-20.897-8.63v26.196c.789.281 1.559.603 2.31.957l18.587-18.523zm514.066 61.533v26.197a50.884 50.884 0 0 0 20.897-8.632l-18.589-18.523c-.75.355-1.519.677-2.308.958zm14.475-13.076 18.588 18.522a50.504 50.504 0 0 0 8.66-20.826h-26.291a25.487 25.487 0 0 1-.957 2.304zm-23.076-18.504c-4.229 0-7.657 3.416-7.657 7.63 0 4.215 3.429 7.631 7.657 7.631s7.657-3.416 7.657-7.631c.001-4.214-3.428-7.63-7.657-7.63zm0 21.653c-1.793 0-3.246 1.448-3.246 3.234s1.453 3.234 3.246 3.234c1.792 0 3.245-1.448 3.245-3.234s-1.453-3.234-3.245-3.234zM70.867 311.436c-.022.005-.032.003-.056.009.024.139.043.128.056-.009zm871.12 21.139c1.476-52.841-33.835-74.252-32.12-72.974-8.865-6.607-20.691-9.007-32.965-12.397 21.246 5.869-30.112-5.286-143.693-17.75l-6.48-.281c-25.268-7.695-26.194-9.161-34.373-14.934-7.901-5.575-15.815-11.103-23.667-16.623-16.431-11.551-33.65-22.196-50.716-32.965-6.355-4.011-12.967-7.049-19.44-10.988-6.073-3.695-18.995-9.243-20.005-9.58-.63-.471-.686-1.555-1.127-2.254-2.403-3.805-5.806-11.049-12.115-9.861v2.254c.717 1.104.591 3.683.563 5.354-8.246-.812-24.794-3.099-24.794-3.099s-28.024-3.834-62.808-5.042c-56.897-1.977-131.883-3.437-131.883-3.437s-72.152 1.84-126.089 4.069c-32.192 1.331-57.895 3.538-57.895 3.538s-39.964 6.832-38.318 6.224c-16.795 6.207-4.993 7.6-4.508 10.425-9.25 9.972-25.809 17.2-47.053 80.018-1.77 5.233-1.238 11.699-2.536 17.188 0 22.552 1.117 59.737.901 61.977 3.723-.819-22.681 14.576-9.917 58.612 1.274 4.397 7.411 17.749 10.153 14.138-12.241 16.121 33.907 24.601 90.521 29.028a87.17 87.17 0 0 1-3.617-24.908c0-48.303 39.294-87.461 87.767-87.461s87.767 39.158 87.767 87.461a87.013 87.013 0 0 1-5.14 29.548l1.904-.021 369.514.467c-4.41-10.433-6.85-21.896-6.85-33.927 0-48.303 39.295-87.461 87.768-87.461s87.768 39.158 87.768 87.461c0 12.11-2.471 23.645-6.936 34.132l4.628.006s39.266 2.535 44.798-12.115c1.754-1.079 5.025-.462 7.044-1.127 6.262-2.064 16.019-14.87 12.397-12.679 7.087-4.291 10.955-38.623 11.552-60.016zM296.494 162.476l-46.489 65.601s16.138.282-142.997-.146c13.339-45.461 46.34-70.351 46.34-70.351l136.666-8.005s7.981-.04 9.017 2.745c2.233 2.728-2.537 10.156-2.537 10.156zm41.136 68.26s-16.209-4.755-18.878-13.115c-1.136-3.561-.391-8.308.521-11.395a.98.98 0 0 1 .044-.157c-.016.049-.029.107-.044.157.127-.175 13.628-41.085 24.274-50.31 13.686-7.696 101.431-1.69 101.431-1.69l.037 76.365-107.385.145zm282.033-34.81v.282h-.281c-11.544 14.993-.563 38.317-.563 38.317l-137.479-.048s.265-75.625.265-69.545c.839-3.864.624-7.521 2.536-10.143 1.871-2.565 5.308-2.26 8.734-3.381.707.027 41.023-.88 62.831 6.198 13.517 4.389 66.706 40.13 63.957 38.32zm161.073 105.151c-46.164 0-83.587 37.293-83.587 83.295 0 46.003 37.423 83.295 83.587 83.295s83.587-37.292 83.587-83.295c0-46.002-37.423-83.295-83.587-83.295zm0 142.792c-32.975 0-59.705-26.638-59.705-59.497 0-32.858 26.73-59.496 59.705-59.496 32.974 0 59.705 26.638 59.705 59.496 0 32.859-26.731 59.497-59.705 59.497zm14.073-59.498a3.24 3.24 0 0 0 3.246 3.234c1.792 0 3.245-1.448 3.245-3.234s-1.453-3.234-3.245-3.234a3.24 3.24 0 0 0-3.246 3.234zm-24.982-22.99c.751-.354 1.52-.678 2.309-.959v-26.196a50.865 50.865 0 0 0-20.896 8.631l18.587 18.524zm10.909 8.967c1.792 0 3.245-1.448 3.245-3.234s-1.453-3.234-3.245-3.234c-1.793 0-3.246 1.448-3.246 3.234s1.453 3.234 3.246 3.234zm29.498-27.492a50.87 50.87 0 0 0-20.897-8.631v26.196c.789.281 1.559.603 2.31.957l18.587-18.522zm-52.573 30.642-18.588-18.522a50.504 50.504 0 0 0-8.66 20.826h26.291c.283-.786.602-1.556.957-2.304zm9.002 10.873a3.24 3.24 0 0 0-3.245-3.234c-1.793 0-3.246 1.448-3.246 3.234s1.453 3.234 3.246 3.234a3.24 3.24 0 0 0 3.245-3.234zm-15.426 41.518a50.893 50.893 0 0 0 20.898 8.631v-26.196a25.75 25.75 0 0 1-2.311-.958l-18.587 18.523zm5.465-32.947h-26.289a50.501 50.501 0 0 0 8.661 20.825l18.589-18.523a24.913 24.913 0 0 1-.961-2.302z" fill="#ffffff" class="fill-323232"></path></svg>